<svg width="23" height="13" viewBox="0 0 23 13" fill="none" xmlns="http://www.w3.org/2000/svg">
<g id="Group 123">
<path id="Vector" d="M16.9673 1H6.96729C4.20586 1 1.96729 2.20886 1.96729 3.70006V9.10019C1.96729 10.5914 4.20586 11.8003 6.96729 11.8003H16.9673C19.7287 11.8003 21.9673 10.5914 21.9673 9.10019V3.70006C21.9673 2.20886 19.7287 1 16.9673 1Z" fill="white" stroke="black" stroke-width="2" stroke-linecap="round" stroke-linejoin="round"/>
<path id="Vector_2" d="M15.9675 6.05994C16.0909 6.50937 15.9487 6.96836 15.5612 7.37164C15.1737 7.77492 14.5606 8.10196 13.8091 8.30622C13.0576 8.51049 12.2059 8.58159 11.3753 8.50941C10.5446 8.43722 9.77724 8.22544 9.18232 7.90417C8.5874 7.58291 8.19521 7.16852 8.06155 6.71996C7.92788 6.27139 8.05955 5.81148 8.43781 5.40565C8.81607 4.99982 9.42167 4.66873 10.1685 4.45948C10.9153 4.25022 11.7652 4.17346 12.5975 4.2401C13.4464 4.30808 14.2323 4.5217 14.8392 4.8494C15.446 5.1771 15.8416 5.60152 15.9675 6.05994Z" fill="white" stroke="black" stroke-width="2" stroke-linecap="round" stroke-linejoin="round"/>
<path id="Vector_3" d="M17.4673 3.43004H17.4773" stroke="black" stroke-width="2" stroke-linecap="round" stroke-linejoin="round"/>
</g>
</svg>
