<svg width="23" height="10" viewBox="0 0 23 10" fill="none" xmlns="http://www.w3.org/2000/svg">
<g id="Group 122">
<path id="Vector" d="M22.0498 0.00573538C21.0922 0.370502 20.0319 0.649489 18.9098 0.831955C18.3075 0.458002 17.5071 0.192953 16.6168 0.0726571C15.7265 -0.0476393 14.7893 -0.0173795 13.9319 0.159344C13.0745 0.336067 12.3382 0.650727 11.8228 1.06077C11.3073 1.47081 11.0375 1.95644 11.0498 2.45199V2.992C9.29244 3.01661 7.55108 2.80614 5.98081 2.37933C4.41055 1.95252 3.06012 1.32263 2.0498 0.545748C2.0498 0.545748 -1.9502 5.40586 7.0498 7.56591C4.99033 8.32083 2.53696 8.69936 0.0498047 8.64594C9.0498 11.346 20.0498 8.64594 20.0498 2.43579C20.0489 2.28537 20.0221 2.13533 19.9698 1.98758C20.9904 1.44406 21.7106 0.757818 22.0498 0.00573538Z" fill="#1F1B1B"/>
</g>
</svg>
